<svg xmlns="http://www.w3.org/2000/svg" width="16" height="17" viewBox="0 0 16 17"><defs><style>.a{fill:#e4e5ed;}</style></defs><g transform="translate(-13 -8)"><path class="a" d="M21.256,10.1l-2.917-1.94a1.15,1.15,0,0,0-1.178,0L14.244,10.1a.437.437,0,0,0,0,.784,1.15,1.15,0,0,0,1.178,0l1.494-.994V20.749c0,.306.373.554.833.554s.833-.248.833-.554V9.893l1.494.994a1.15,1.15,0,0,0,1.178,0A.437.437,0,0,0,21.256,10.1Z" transform="translate(-1 0)"/><path class="a" d="M39.256,20.278a1,1,0,0,0-1.178,0l-1.494,1.171V8.653a.858.858,0,0,0-1.667,0v12.8l-1.494-1.171a1,1,0,0,0-1.178,0,.559.559,0,0,0,0,.924l2.917,2.287a1,1,0,0,0,1.178,0L39.256,21.2a.559.559,0,0,0,0-.924Z" transform="translate(-10.5 1.321)"/></g></svg>